<?xml version="1.0" encoding="UTF-8"?>
<svg width="70px" height="23px" viewBox="0 0 70 23" version="1.1" xmlns="http://www.w3.org/2000/svg" xmlns:xlink="http://www.w3.org/1999/xlink">
    <title>Hello</title>
    <defs>
        <linearGradient x1="0%" y1="50%" x2="100%" y2="52.4864368%" id="linearGradient-1">
            <stop stop-color="#86E29C" offset="0%"></stop>
            <stop stop-color="#08A1A2" offset="100%"></stop>
        </linearGradient>
    </defs>
    <g id="10-18" stroke="none" stroke-width="1" fill="none" fill-rule="evenodd">
        <g id="登录" transform="translate(-256.000000, -149.000000)" fill="url(#linearGradient-1)" fill-rule="nonzero">
            <path d="M259.61,171 L259.61,161.52 L270.47,161.52 L270.47,171 L273.98,171 L273.98,149.58 L270.47,149.58 L270.47,158.52 L259.61,158.52 L259.61,149.58 L256.1,149.58 L256.1,171 L259.61,171 Z M284.63,171.42 C286.7,171.42 288.41,170.82 289.79,169.65 C290.87,168.69 291.59,167.46 291.95,166.02 L288.53,166.02 C288.11,166.89 287.66,167.52 287.15,167.91 C286.49,168.39 285.65,168.63 284.6,168.63 C283.37,168.63 282.41,168.24 281.75,167.49 C281.09,166.74 280.7,165.63 280.58,164.19 L292.19,164.19 C292.19,161.4 291.56,159.21 290.33,157.65 C288.98,155.91 287.03,155.07 284.48,155.07 C282.17,155.07 280.34,155.85 279.02,157.44 C277.64,159 276.98,160.92 276.98,163.23 C276.98,165.81 277.7,167.82 279.14,169.29 C280.49,170.7 282.32,171.42 284.63,171.42 Z M288.62,161.61 L280.64,161.61 C280.85,160.38 281.27,159.45 281.9,158.82 C282.56,158.16 283.43,157.86 284.57,157.86 C286.97,157.86 288.32,159.09 288.62,161.61 Z M298.61,171 L298.61,149.16 L295.19,149.16 L295.19,171 L298.61,171 Z M306.23,171 L306.23,149.16 L302.81,149.16 L302.81,171 L306.23,171 Z M317.33,171.42 C319.67,171.42 321.59,170.64 323.03,169.08 C324.41,167.58 325.13,165.63 325.13,163.26 C325.13,160.86 324.41,158.91 323,157.38 C321.56,155.82 319.67,155.07 317.33,155.07 C314.96,155.07 313.07,155.82 311.66,157.38 C310.22,158.91 309.53,160.86 309.53,163.26 C309.53,165.63 310.22,167.58 311.63,169.08 C313.07,170.64 314.96,171.42 317.33,171.42 Z M317.33,168.63 C315.89,168.63 314.81,168.06 314.03,166.95 C313.37,165.99 313.04,164.76 313.04,163.26 C313.04,161.76 313.37,160.5 314.03,159.54 C314.81,158.4 315.89,157.86 317.33,157.86 C318.74,157.86 319.85,158.4 320.63,159.54 C321.29,160.5 321.65,161.76 321.65,163.26 C321.65,164.73 321.29,165.96 320.63,166.95 C319.85,168.06 318.74,168.63 317.33,168.63 Z" id="Hello"></path>
        </g>
    </g>
</svg>