<?xml version="1.0" standalone="no"?><!DOCTYPE svg PUBLIC "-//W3C//DTD SVG 1.1//EN" "http://www.w3.org/Graphics/SVG/1.1/DTD/svg11.dtd"><svg t="1635319963157" class="icon" viewBox="0 0 1024 1024" version="1.1" xmlns="http://www.w3.org/2000/svg" p-id="1635" xmlns:xlink="http://www.w3.org/1999/xlink" width="200" height="200"><defs><style type="text/css"></style></defs><path d="M674.133333 349.866667a162.133333 162.133333 0 1 0-324.266666 0 162.133333 162.133333 0 0 0 324.266666 0z m51.2 0a213.333333 213.333333 0 1 1-426.666666 0 213.333333 213.333333 0 0 1 426.666666 0zM221.866667 744.448c0 50.730667 41.088 91.818667 91.818666 91.818667h396.629334a91.818667 91.818667 0 1 0 0-183.637334H313.685333A91.818667 91.818667 0 0 0 221.866667 744.448z m-51.2 0c0-78.933333 64-143.018667 143.018666-143.018667h396.629334a143.018667 143.018667 0 0 1 0 286.037334H313.685333A143.018667 143.018667 0 0 1 170.666667 744.448z" p-id="1636" fill="#ffffff"></path></svg>