<?xml version="1.0" standalone="no"?><!DOCTYPE svg PUBLIC "-//W3C//DTD SVG 1.1//EN" "http://www.w3.org/Graphics/SVG/1.1/DTD/svg11.dtd"><svg t="1635319959129" class="icon" viewBox="0 0 1024 1024" version="1.1" xmlns="http://www.w3.org/2000/svg" p-id="1428" xmlns:xlink="http://www.w3.org/1999/xlink" width="200" height="200"><defs><style type="text/css"></style></defs><path d="M309.333333 113.066667a196.266667 196.266667 0 0 0-196.266666 196.266666v119.722667a25.6 25.6 0 1 0 51.2 0V309.333333a145.066667 145.066667 0 0 1 145.066666-145.066666h67.84a25.6 25.6 0 0 0 0-51.2H309.333333z m337.493334 0a25.6 25.6 0 1 0 0 51.2h67.84a145.066667 145.066667 0 0 1 145.066666 145.066666v119.722667a25.6 25.6 0 1 0 51.2 0V309.333333a196.266667 196.266667 0 0 0-196.266666-196.266666h-67.84zM164.266667 615.68a25.6 25.6 0 0 0-51.2 0v98.986667a196.266667 196.266667 0 0 0 196.266666 196.266666h67.84a25.6 25.6 0 1 0 0-51.2H309.333333a145.066667 145.066667 0 0 1-145.066666-145.066666v-98.986667z m746.666666 0a25.6 25.6 0 0 0-51.2 0v98.986667a145.066667 145.066667 0 0 1-145.066666 145.066666h-67.84a25.6 25.6 0 1 0 0 51.2h67.84a196.266667 196.266667 0 0 0 196.266666-196.266666v-98.986667zM317.696 486.4a25.6 25.6 0 0 0 0 51.2h388.608a25.6 25.6 0 0 0 0-51.2H317.696z" p-id="1429" fill="#ffffff"></path></svg>