<?xml version="1.0" standalone="no"?><!DOCTYPE svg PUBLIC "-//W3C//DTD SVG 1.1//EN" "http://www.w3.org/Graphics/SVG/1.1/DTD/svg11.dtd"><svg t="1639470131083" class="icon" viewBox="0 0 1024 1024" version="1.1" xmlns="http://www.w3.org/2000/svg" p-id="6575" xmlns:xlink="http://www.w3.org/1999/xlink" width="200" height="200"><defs><style type="text/css"></style></defs><path d="M814.933 349.867C776.533 217.6 652.8 128 512 128s-264.533 89.6-302.933 221.867C85.333 379.733 0 490.667 0 618.667 0 772.267 123.733 896 277.333 896h469.334C900.267 896 1024 772.267 1024 618.667c0-128-85.333-238.934-209.067-268.8z m-68.266 460.8H277.333c-106.666 0-192-85.334-192-192 0-93.867 68.267-174.934 162.134-187.734 17.066-4.266 29.866-17.066 34.133-34.133C307.2 290.133 405.333 213.333 512 213.333s204.8 76.8 230.4 183.467c4.267 17.067 17.067 29.867 34.133 34.133 93.867 12.8 162.134 93.867 162.134 187.734 0 106.666-85.334 192-192 192z" p-id="6576" data-spm-anchor-id="a313x.7781069.0.i27" class="selected" fill="#8DA2C0"></path><path d="M806.4 695.467h-29.867l17.067-12.8c12.8-8.534 17.067-25.6 21.333-38.4 0-17.067-4.266-29.867-17.066-38.4-21.334-21.334-51.2-21.334-72.534-4.267l-12.8 12.8c-8.533 8.533-8.533 21.333-4.266 29.867 8.533 8.533 21.333 8.533 29.866 4.266l12.8-12.8c4.267-4.266 8.534-4.266 12.8 0C768 635.733 768 640 768 640s0 4.267-4.267 8.533l-64 51.2C691.2 704 691.2 716.8 691.2 725.333c4.267 8.534 12.8 12.8 21.333 12.8h89.6c12.8 0 21.334-8.533 21.334-21.333s-8.534-21.333-17.067-21.333zM571.733 469.333c-59.733 0-110.933 51.2-110.933 110.934V627.2c0 59.733 51.2 110.933 110.933 110.933s110.934-51.2 110.934-110.933v-46.933c-4.267-59.734-51.2-110.934-110.934-110.934zM614.4 627.2c0 25.6-21.333 46.933-46.933 46.933S520.533 652.8 520.533 627.2v-46.933c0-25.6 21.334-46.934 46.934-46.934s46.933 21.334 46.933 46.934V627.2z m-268.8-93.867h59.733c17.067 0 34.134-12.8 34.134-34.133s-17.067-29.867-34.134-29.867H345.6c-72.533 0-132.267 59.734-132.267 132.267S273.067 733.867 345.6 733.867h59.733c17.067 0 34.134-12.8 34.134-34.134s-12.8-34.133-34.134-34.133H345.6c-38.4 0-68.267-29.867-68.267-68.267s29.867-64 68.267-64z" p-id="6577" data-spm-anchor-id="a313x.7781069.0.i25" class="" fill="#1ABFC2"></path></svg>