<?xml version="1.0" standalone="no"?><!DOCTYPE svg PUBLIC "-//W3C//DTD SVG 1.1//EN" "http://www.w3.org/Graphics/SVG/1.1/DTD/svg11.dtd"><svg t="1639382749305" class="icon" viewBox="0 0 1024 1024" version="1.1" xmlns="http://www.w3.org/2000/svg" p-id="4792" xmlns:xlink="http://www.w3.org/1999/xlink" width="200" height="200"><defs><style type="text/css"></style></defs><path d="M512 512m-512 0a512 512 0 1 0 1024 0 512 512 0 1 0-1024 0Z" fill="#FCD063" p-id="4793"></path><path d="M840.512 119.488C915.008 208.416 960 322.912 960 448c0 282.752-229.248 512-512 512-125.088 0-239.584-44.992-328.512-119.488C213.408 952.64 354.304 1024 512 1024c282.752 0 512-229.248 512-512 0-157.696-71.36-298.592-183.488-392.512z" fill="#F7B84E" p-id="4794"></path><path d="M224 448m-64 0a64 64 0 1 0 128 0 64 64 0 1 0-128 0Z" fill="#C98E3F" p-id="4795"></path><path d="M224 416c29.792 0 54.592 20.448 61.728 48 1.344-5.152 2.272-10.432 2.272-16 0-35.328-28.672-64-64-64s-64 28.672-64 64c0 5.568 0.928 10.848 2.272 16 7.136-27.552 31.936-48 61.728-48z" fill="#AB7934" p-id="4796"></path><path d="M800 448m-64 0a64 64 0 1 0 128 0 64 64 0 1 0-128 0Z" fill="#C98E3F" p-id="4797"></path><path d="M800 416c29.792 0 54.592 20.448 61.76 48 1.312-5.152 2.24-10.432 2.24-16 0-35.328-28.672-64-64-64s-64 28.672-64 64c0 5.568 0.928 10.848 2.24 16 7.168-27.552 31.968-48 61.76-48z" fill="#AB7934" p-id="4798"></path><path d="M816 592m-48 0a48 48 0 1 0 96 0 48 48 0 1 0-96 0Z" fill="#F7B84E" p-id="4799"></path><path d="M208 592m-48 0a48 48 0 1 0 96 0 48 48 0 1 0-96 0Z" fill="#F7B84E" p-id="4800"></path><path d="M672 624c0 26.4-21.6 48-48 48H400c-26.4 0-48-21.6-48-48s21.6-48 48-48h224c26.4 0 48 21.6 48 48z" fill="#C98E3F" p-id="4801"></path><path d="M354.976 608h314.048c-6.656-18.56-24.256-32-45.024-32H400c-20.768 0-38.4 13.44-45.024 32z" fill="#AB7934" p-id="4802"></path></svg>