<?xml version="1.0" standalone="no"?><!DOCTYPE svg PUBLIC "-//W3C//DTD SVG 1.1//EN" "http://www.w3.org/Graphics/SVG/1.1/DTD/svg11.dtd"><svg class="icon" width="200px" height="200.00px" viewBox="0 0 1024 1024" version="1.1" xmlns="http://www.w3.org/2000/svg"><path fill="#13C2C2" d="M264.26 494.06m-40 0a40 40 0 1 0 80 0 40 40 0 1 0-80 0Z"  /><path fill="#13C2C2" d="M404.81 574.59m-40 0a40 40 0 1 0 80 0 40 40 0 1 0-80 0Z"  /><path fill="#13C2C2" d="M264.26 349.17m-40 0a40 40 0 1 0 80 0 40 40 0 1 0-80 0Z"  /><path fill="#13C2C2" d="M404.81 430.68m-40 0a40 40 0 1 0 80 0 40 40 0 1 0-80 0Z"  /><path fill="#13C2C2" d="M659.7 574.59m-40 0a40 40 0 1 0 80 0 40 40 0 1 0-80 0Z"  /><path fill="#13C2C2" d="M800.26 502.4m-40 0a40 40 0 1 0 80 0 40 40 0 1 0-80 0Z"  /><path fill="#13C2C2" d="M659.7 429.17m-40 0a40 40 0 1 0 80 0 40 40 0 1 0-80 0Z"  /><path fill="#13C2C2" d="M800.26 358.97m-40 0a40 40 0 1 0 80 0 40 40 0 1 0-80 0Z"  /><path fill="#13C2C2" d="M898.78 747.28H136.11c-16.57 0-30-13.43-30-30s13.43-30 30-30h762.67c16.57 0 30 13.43 30 30s-13.43 30-30 30z"  /></svg>