<svg xmlns="http://www.w3.org/2000/svg" xmlns:xlink="http://www.w3.org/1999/xlink" width="114.887" height="105.101" viewBox="0 0 114.887 105.101">
  <defs>
    <linearGradient id="linear-gradient" x1="0.684" y1="0.582" x2="-0.129" y2="0.214" gradientUnits="objectBoundingBox">
      <stop offset="0" stop-color="#81df9c"/>
      <stop offset="1" stop-color="#a9e4de"/>
    </linearGradient>
  </defs>
  <g id="组_259" data-name="组 259" transform="translate(-284.814 -272.436)">
    <path id="路径_420" data-name="路径 420" d="M285.75,334.162l2,2.289,7.509-4.3,12.188-9.387-.1-2.793-7-6.319L296.6,314.93Z" fill="#fff"/>
    <path id="路径_421" data-name="路径 421" d="M288.83,334.992l6.881-3.778,11.566-8.533-.1-2.539-1.668-1.441a37.467,37.467,0,0,0-9.416,6.66A35.55,35.55,0,0,0,288.83,334.992Z" fill="#d3f3f2"/>
    <path id="路径_422" data-name="路径 422" d="M358.752,355.316H325.718a14.958,14.958,0,0,1-14.958-14.958l.833-30.672a14.958,14.958,0,0,1,14.958-14.958h31.367a14.958,14.958,0,0,1,14.959,14.958l.833,30.672A14.958,14.958,0,0,1,358.752,355.316Z" fill="#fff"/>
    <path id="路径_423" data-name="路径 423" d="M346.075,273.71c0,.173-2.309,6.823-2.309,6.823h-4.248l2.957,9.236,2.723-4.387,5.726-1.847Z" fill="#fff"/>
    <path id="路径_424" data-name="路径 424" d="M347.171,276.094c0,.173-2.389,6.029-2.389,6.029l-5.552-1.584,3.43,9.956,2.1-5.259,5.791-1.922Z" fill="url(#linear-gradient)"/>
    <path id="路径_425" data-name="路径 425" d="M396.555,307.463l2.309,2.014-4.341,7.574-9.467,12.292-2.817-.1-6.373-7.062,1.293-3.774Z" fill="#fff"/>
    <path id="路径_426" data-name="路径 426" d="M322.442,361.014l2.032,10.252,4.025,5.357,2.532-1.663,2.956-10.252v-3.694Z" fill="#fff"/>
    <path id="路径_427" data-name="路径 427" d="M349.546,361.014l2.032,10.252,4.025,5.357,2.532-1.663,2.956-10.252v-3.694Z" fill="#fff"/>
    <path id="路径_428" data-name="路径 428" d="M360.489,342.5H323.745a5.909,5.909,0,0,1-5.908-5.909l1.25-24.88a8.349,8.349,0,0,1,8.35-8.35H356.8a8.35,8.35,0,0,1,8.351,8.35L366.4,336.6A5.909,5.909,0,0,1,360.489,342.5Z" fill="#a9e4de"/>
    <path id="路径_429" data-name="路径 429" d="M368.8,310.4a8.35,8.35,0,0,0-8.35-8.351h-4.018a8.351,8.351,0,0,1,8.351,8.351l1.249,24.88a5.908,5.908,0,0,1-5.908,5.908h4.018a5.908,5.908,0,0,0,5.908-5.908Z" opacity="0.08"/>
    <path id="路径_430" data-name="路径 430" d="M327.788,361.452c1.782.125,3.21,3.371,3.21,7.366,0,3.978-1.416,7.212-3.187,7.363a2.47,2.47,0,0,0,1.368.442c2.987,0,5.408-6.11,5.408-13.646q0-.774-.034-1.525Z" fill="#d3f3f2"/>
    <path id="路径_431" data-name="路径 431" d="M354.436,361.452c1.782.125,3.21,3.371,3.21,7.366,0,3.978-1.416,7.212-3.186,7.363a2.467,2.467,0,0,0,1.367.442c2.987,0,5.408-6.11,5.408-13.646q0-.774-.034-1.525Z" fill="#d3f3f2"/>
    <g id="组_249" data-name="组 249">
      <g id="组_247" data-name="组 247">
        <path id="路径_432" data-name="路径 432" d="M355.619,377.537c-.917,0-2.064-.489-3.233-2.241-3.523-5.287-3.564-13.788-3.564-14.148v-.956h13.827v.956c0,3.7-2.15,15.029-6.25,16.271A2.677,2.677,0,0,1,355.619,377.537Zm-4.853-15.432c.116,2.314.661,8.3,3.211,12.13.486.731,1.216,1.547,1.868,1.354,2.221-.673,4.559-8.731,4.86-13.484Z"/>
      </g>
      <g id="组_248" data-name="组 248">
        <path id="路径_433" data-name="路径 433" d="M328.615,377.537a2.677,2.677,0,0,1-.78-.118c-4.1-1.242-6.25-12.575-6.25-16.271v-.956h13.829v.956c0,.36-.041,8.861-3.565,14.148C330.681,377.048,329.532,377.537,328.615,377.537Zm-5.086-15.432c.3,4.753,2.639,12.811,4.86,13.484.648.191,1.381-.623,1.868-1.354,2.552-3.827,3.1-9.816,3.213-12.13Z"/>
      </g>
    </g>
    <g id="组_250" data-name="组 250">
      <path id="路径_434" data-name="路径 434" d="M345.356,328.854h-6.477a.111.111,0,0,0-.111.111v3.954a3.349,3.349,0,0,0,3.349,3.35h0a3.35,3.35,0,0,0,3.35-3.35v-3.954A.111.111,0,0,0,345.356,328.854Z"/>
    </g>
    <g id="组_251" data-name="组 251">
      <rect id="矩形_89" data-name="矩形 89" width="5.22" height="11.964" rx="2.61" transform="translate(328.679 313.775)"/>
    </g>
    <g id="组_252" data-name="组 252">
      <rect id="矩形_90" data-name="矩形 90" width="5.22" height="11.964" rx="2.61" transform="translate(350.335 313.775)"/>
    </g>
    <g id="组_253" data-name="组 253">
      <path id="路径_435" data-name="路径 435" d="M361.36,343.528H322.874a6.291,6.291,0,0,1-6.284-6.283l1.915-28.684a6.275,6.275,0,0,1,6.281-6.221h34.662a6.293,6.293,0,0,1,6.285,6.285l1.911,28.556A6.3,6.3,0,0,1,361.36,343.528Zm-36.574-39.275a4.376,4.376,0,0,0-4.37,4.372L318.5,337.308a4.365,4.365,0,0,0,4.373,4.307H361.36a4.376,4.376,0,0,0,4.373-4.37l-1.911-28.557a4.393,4.393,0,0,0-4.374-4.435Z"/>
    </g>
    <g id="组_254" data-name="组 254">
      <path id="路径_436" data-name="路径 436" d="M342.235,306.834c3.27,0,5.921-1.257,5.921-2.807H336.313C336.313,305.577,338.965,306.834,342.235,306.834Z"/>
    </g>
    <path id="路径_437" data-name="路径 437" d="M373.751,340.012l-2.323-32.088c-.535-7.4-6.981-13.14-14.753-13.14h-3.661v1.191a7.128,7.128,0,0,1,4.242,5.438h1.6c4.612,0,7.934,3.6,7.934,8.545l1.667,27.952a6.486,6.486,0,0,1-6.325,6.341h0c-1.221,4.464-5.652,7.953-9.115,10.826v.019H359C367.566,355.1,374.342,348.169,373.751,340.012Z" fill="#d3f3f2"/>
    <path id="路径_438" data-name="路径 438" d="M396.555,307.463l-2.381,1.343a19.2,19.2,0,0,1-5.109,10.407c-3.157,3.513-6.954,5.724-10.221,6.264l3.4,3.762,2.817.1,9.467-12.292,4.341-7.574Z" fill="#d3f3f2"/>
    <g id="组_255" data-name="组 255">
      <path id="路径_439" data-name="路径 439" d="M342.611,291.387H342.6a1.016,1.016,0,0,1-.954-.674h0c-.649-1.784-3.213-9.732-3.322-10.07a1.028,1.028,0,0,1,.152-.925,1.082,1.082,0,0,1,.848-.416l3.933.077,1.909-6.214a1.033,1.033,0,0,1,.928-.725,1.009,1.009,0,0,1,1,.617l4.269,9.9a1.029,1.029,0,0,1-.64,1.387l-5.357,1.632-1.792,4.739A1.038,1.038,0,0,1,342.611,291.387Zm.713-1.284h0Zm-2.974-9c.524,1.616,1.566,4.827,2.3,7.024L343.832,285a1.034,1.034,0,0,1,.668-.622l4.893-1.49-3.122-7.245-1.474,4.8a1.067,1.067,0,0,1-1.012.727Zm4.673,4.981-.008,0Zm4.7-2.422,0,.005Zm-5.911-4.275h0Z"/>
    </g>
    <g id="组_256" data-name="组 256">
      <path id="路径_440" data-name="路径 440" d="M359.463,356.1h-34.69a15.563,15.563,0,0,1-15.535-16.5l1.881-31.037a15.586,15.586,0,0,1,15.535-14.62h30.928a15.583,15.583,0,0,1,15.533,14.62L375,339.6a15.563,15.563,0,0,1-15.533,16.5Zm-32.809-60.248a13.672,13.672,0,0,0-13.626,12.824l-1.881,31.037a13.653,13.653,0,0,0,13.626,14.475h34.69a13.652,13.652,0,0,0,13.624-14.475l-1.881-31.037a13.667,13.667,0,0,0-13.624-12.824Z"/>
    </g>
    <g id="组_257" data-name="组 257">
      <path id="路径_441" data-name="路径 441" d="M308.368,321.165c0,.107,0,.213-.011.32a4.638,4.638,0,0,1-1.971,3.5l-16.467,11.56a3.243,3.243,0,0,1-4.652-4.311l10.285-17.294a4.658,4.658,0,0,1,7.172-1.034l4.153,3.851A4.629,4.629,0,0,1,308.368,321.165ZM286.71,333.888a1.338,1.338,0,0,0,.43.989h0a1.352,1.352,0,0,0,1.69.115l16.467-11.56a2.763,2.763,0,0,0,.291-4.286l-4.154-3.852a2.765,2.765,0,0,0-4.253.615L286.9,333.2A1.333,1.333,0,0,0,286.71,333.888Z"/>
    </g>
    <g id="组_258" data-name="组 258">
      <path id="路径_442" data-name="路径 442" d="M383.6,330.281a4.675,4.675,0,0,1-3.441-1.505l-3.881-4.188a4.7,4.7,0,0,1,1.042-7.234l17.442-10.372a3.287,3.287,0,0,1,4.072.589h0a3.29,3.29,0,0,1,.278,4.1l-11.661,16.609a4.679,4.679,0,0,1-3.528,1.989C383.816,330.277,383.709,330.281,383.6,330.281Zm12.832-21.844a1.346,1.346,0,0,0-.691.189L378.3,319a2.788,2.788,0,0,0-.62,4.29l3.883,4.188a2.786,2.786,0,0,0,4.324-.293l11.661-16.608a1.366,1.366,0,0,0-.118-1.7h0A1.35,1.35,0,0,0,396.433,308.437Z"/>
    </g>
  </g>
</svg>
