<?xml version="1.0" encoding="UTF-8"?>
<svg width="48px" height="48px" viewBox="0 0 48 48" version="1.1" xmlns="http://www.w3.org/2000/svg" xmlns:xlink="http://www.w3.org/1999/xlink">
    <title>logo</title>
    <g id="企业端" stroke="none" stroke-width="1" fill="none" fill-rule="evenodd">
        <g id="智能插座IOT--告警管理" transform="translate(-86.000000, -32.000000)">
            <g id="菜单-" transform="translate(-1.000000, 0.000000)">
                <g id="编组-2" transform="translate(87.000000, 32.000000)">
                    <circle id="椭圆形" fill="#1ABFC2" cx="24" cy="24" r="24"></circle>
                    <path d="M24,8 C32.836556,8 40,15.1678473 40,24.009835 C40,32.7315158 32.8391269,40 23.9515174,40 C23.5107778,40 23.1505075,39.6552586 23.1253361,39.220562 L23.1239312,39.1719051 L23.1227722,33.2129368 C19.3502663,32.77813 16.4210526,29.5732475 16.4210526,25.6842105 L16.4210526,24 L31.5789474,24 L31.5789474,25.6842105 C31.5789474,29.6065576 28.5993407,32.8329803 24.7801076,33.2234983 L24.7793103,38.3195911 L24.8999758,38.3128407 C32.3450241,37.8251412 38.2212905,31.6404329 38.3429049,24.2438101 L38.3448276,24.009835 C38.3448276,16.0825357 31.9224295,9.65618982 24,9.65618982 C16.0775705,9.65618982 9.65517241,16.0825357 9.65517241,24.009835 C9.65517241,30.9807513 14.6569571,36.9103836 21.4337329,38.1345847 C21.8835248,38.2158381 22.1823248,38.6465595 22.1011214,39.096628 C22.0199179,39.5466964 21.5894611,39.8456801 21.1396691,39.7644267 C13.5782962,38.3984908 8,31.7854022 8,24.009835 C8,15.1678473 15.163444,8 24,8 Z M20.2105263,17.2631579 C20.9081492,17.2631579 21.4736842,17.8286929 21.4736842,18.5263158 L21.4736842,21.8947368 C21.4736842,22.5923597 20.9081492,23.1578947 20.2105263,23.1578947 C19.5129035,23.1578947 18.9473684,22.5923597 18.9473684,21.8947368 L18.9473684,18.5263158 C18.9473684,17.8286929 19.5129035,17.2631579 20.2105263,17.2631579 Z M27.7894737,17.2631579 C28.4870965,17.2631579 29.0526316,17.8286929 29.0526316,18.5263158 L29.0526316,21.8947368 C29.0526316,22.5923597 28.4870965,23.1578947 27.7894737,23.1578947 C27.0918508,23.1578947 26.5263158,22.5923597 26.5263158,21.8947368 L26.5263158,18.5263158 C26.5263158,17.8286929 27.0918508,17.2631579 27.7894737,17.2631579 Z" id="形状结合" fill="#FFFFFF" fill-rule="nonzero"></path>
                </g>
            </g>
        </g>
    </g>
</svg>