<?xml version="1.0" standalone="no"?><!DOCTYPE svg PUBLIC "-//W3C//DTD SVG 1.1//EN" "http://www.w3.org/Graphics/SVG/1.1/DTD/svg11.dtd"><svg class="icon" width="200px" height="200.00px" viewBox="0 0 1024 1024" version="1.1" xmlns="http://www.w3.org/2000/svg"><path fill="#13C2C2" d="M697.63 601.89m-40 0a40 40 0 1 0 80 0 40 40 0 1 0-80 0Z"  /><path fill="#13C2C2" d="M795.24 448.11m-40 0a40 40 0 1 0 80 0 40 40 0 1 0-80 0Z"  /><path fill="#13C2C2" d="M583.78 755.44m-40 0a40 40 0 1 0 80 0 40 40 0 1 0-80 0Z"  /><path fill="#13C2C2" d="M819.67 324.33H233.02c-16.57 0-30-13.43-30-30s13.43-30 30-30h586.65c16.57 0 30 13.43 30 30s-13.43 30-30 30zM670.33 478.11H233.02c-16.57 0-30-13.43-30-30s13.43-30 30-30h437.32c16.57 0 30 13.43 30 30s-13.44 30-30.01 30zM511.68 631.89H233.02c-16.57 0-30-13.43-30-30s13.43-30 30-30h278.66c16.57 0 30 13.43 30 30s-13.44 30-30 30zM443.68 785.44H233.02c-16.57 0-30-13.43-30-30s13.43-30 30-30h210.66c16.57 0 30 13.43 30 30s-13.44 30-30 30z"  /></svg>