<?xml version="1.0" standalone="no"?><!DOCTYPE svg PUBLIC "-//W3C//DTD SVG 1.1//EN" "http://www.w3.org/Graphics/SVG/1.1/DTD/svg11.dtd"><svg t="1639383693792" class="icon" viewBox="0 0 1024 1024" version="1.1" xmlns="http://www.w3.org/2000/svg" p-id="6188" xmlns:xlink="http://www.w3.org/1999/xlink" width="200" height="200"><defs><style type="text/css"></style></defs><path d="M796.444444 938.666667H227.555556a170.666667 170.666667 0 0 1-170.666667-170.666667V483.555556h910.222222v284.444444a170.666667 170.666667 0 0 1-170.666667 170.666667zM56.888889 312.888889a56.888889 56.888889 0 0 1 56.888889-56.888889h199.111111V113.777778a28.444444 28.444444 0 0 1 28.444444-28.444445h341.333334a28.444444 28.444444 0 0 1 28.444444 28.444445v142.222222h199.111111a56.888889 56.888889 0 0 1 56.888889 56.888889v113.777778H56.888889v-113.777778z m568.888889-56.888889V199.111111a28.444444 28.444444 0 0 0-28.444445-28.444444h-170.666666a28.444444 28.444444 0 0 0-28.444445 28.444444v56.888889h227.555556z" p-id="6189" fill="#dbdbdb"></path><path d="M796.444444 938.666667H227.555556a170.666667 170.666667 0 0 1-170.666667-170.666667V483.555556h910.222222v284.444444a170.666667 170.666667 0 0 1-170.666667 170.666667zM56.888889 312.888889a56.888889 56.888889 0 0 1 56.888889-56.888889h199.111111V113.777778a28.444444 28.444444 0 0 1 28.444444-28.444445h341.333334a28.444444 28.444444 0 0 1 28.444444 28.444445v142.222222h199.111111a56.888889 56.888889 0 0 1 56.888889 56.888889v113.777778H56.888889v-113.777778z m568.888889-56.888889V199.111111a28.444444 28.444444 0 0 0-28.444445-28.444444h-170.666666a28.444444 28.444444 0 0 0-28.444445 28.444444v56.888889h227.555556z" p-id="6190" fill="#dbdbdb"></path></svg>