<?xml version="1.0" standalone="no"?><!DOCTYPE svg PUBLIC "-//W3C//DTD SVG 1.1//EN" "http://www.w3.org/Graphics/SVG/1.1/DTD/svg11.dtd"><svg t="1640348863726" class="icon" viewBox="0 0 1024 1024" version="1.1" xmlns="http://www.w3.org/2000/svg" p-id="6523" xmlns:xlink="http://www.w3.org/1999/xlink" width="200" height="200"><defs><style type="text/css"></style></defs><path d="M512.04096 87.08096c234.496 0 424.96 190.464 424.96 424.96s-190.464 424.96-424.96 424.96-424.96-190.464-424.96-424.96 190.464-424.96 424.96-424.96z m0 71.68c-194.56 0-353.28 158.72-353.28 353.28s158.72 353.28 353.28 353.28 353.28-158.72 353.28-353.28-158.72-353.28-353.28-353.28z m25.6 122.88a10.24 10.24 0 0 1 10.24 10.24v184.32h184.32a10.24 10.24 0 0 1 10.24 10.24v51.2a10.24 10.24 0 0 1-10.24 10.24h-245.76a10.24 10.24 0 0 1-10.24-10.24v-245.76a10.24 10.24 0 0 1 10.24-10.24z" fill="#8a8a8a" p-id="6524"></path></svg>