<?xml version="1.0" encoding="UTF-8"?>
<svg width="24px" height="25px" viewBox="0 0 24 25" version="1.1" xmlns="http://www.w3.org/2000/svg" xmlns:xlink="http://www.w3.org/1999/xlink">
    <title>湿度</title>
    <defs>
        <path d="M7.20321746,22.6192678 C3.23409763,22.6192678 0.00554733728,19.3907175 0.00554733728,15.4215976 C0.00554733728,11.727071 5.68602071,4.46283284 6.33505917,3.64737426 C6.49593195,3.44489645 6.73724112,3.3256287 6.99519231,3.32280424 C7.25591716,3.32008136 7.49722633,3.43102811 7.66364645,3.62795858 C7.70525148,3.67788462 8.70931953,4.87056213 9.94360207,6.54585799 C10.2237426,6.92862426 10.1433062,7.46671598 9.76053994,7.74685651 C9.37777367,8.02699704 8.83968195,7.94656065 8.55954142,7.56379438 C7.96875,6.75943047 7.42511095,6.06601331 7.02570266,5.56397929 C5.10632396,8.11575444 1.72244822,13.0944896 1.72244822,15.4215976 C1.72244822,18.4421228 4.17991864,20.9023669 7.20321746,20.9023669 C10.2265163,20.9023669 12.6839867,18.4421228 12.6839867,15.4215976 C12.6839867,14.9473003 13.0695266,14.5617604 13.543824,14.5617604 C14.0181213,14.5617604 14.4036612,14.9473003 14.4036612,15.4215976 C14.4008876,19.3907175 11.1723373,22.6192678 7.20321746,22.6192678 Z" id="path-1"></path>
        <filter x="-17.4%" y="-13.0%" width="134.7%" height="125.9%" filterUnits="objectBoundingBox" id="filter-2">
            <feGaussianBlur stdDeviation="1.5" in="SourceAlpha" result="shadowBlurInner1"></feGaussianBlur>
            <feOffset dx="0" dy="2" in="shadowBlurInner1" result="shadowOffsetInner1"></feOffset>
            <feComposite in="shadowOffsetInner1" in2="SourceAlpha" operator="arithmetic" k2="-1" k3="1" result="shadowInnerInner1"></feComposite>
            <feColorMatrix values="0 0 0 0 0.309803922   0 0 0 0 0.419607843   0 0 0 0 0.584313725  0 0 0 1 0" type="matrix" in="shadowInnerInner1"></feColorMatrix>
        </filter>
        <path d="M14.8363536,24.6606879 C9.80491864,24.6606879 5.7137574,20.566753 5.7137574,15.5380917 C5.7137574,10.7285503 13.5743343,0.771079882 13.9099482,0.349482249 C14.070821,0.147004438 14.3121302,0.0277366864 14.5700814,0.0249122295 C14.8280325,0.0221893491 15.0721154,0.133136095 15.2385355,0.330066568 C15.2940089,0.393860947 16.5976331,1.94434172 18.2008136,4.11889793 C18.4809541,4.5016642 18.4005178,5.03975592 18.0177515,5.31989645 C17.6349852,5.60003698 17.0968935,5.51960059 16.816753,5.13683432 C15.9347263,3.93860947 15.1359098,2.92344675 14.6005917,2.26053994 C12.120932,5.52237426 7.43065828,12.3511464 7.43065828,15.5380917 C7.43065828,19.620932 10.7535133,22.943787 14.8363536,22.943787 C18.9191938,22.943787 22.2420488,19.620932 22.2420488,15.5380917 C22.2420488,14.7143121 21.8759246,13.100037 20.122966,10.0961538 C19.8844305,9.68565089 20.0231139,9.16142751 20.4336169,8.92289201 C20.8441198,8.68435651 21.3683432,8.82303994 21.6068787,9.2335429 C23.1906435,11.9489645 23.9589497,14.0098003 23.9589497,15.5408654 C23.9589497,20.5695266 19.8650148,24.6606879 14.8363536,24.6606879 Z" id="path-3"></path>
        <filter x="-13.7%" y="-10.1%" width="127.4%" height="120.3%" filterUnits="objectBoundingBox" id="filter-4">
            <feGaussianBlur stdDeviation="1.5" in="SourceAlpha" result="shadowBlurInner1"></feGaussianBlur>
            <feOffset dx="0" dy="2" in="shadowBlurInner1" result="shadowOffsetInner1"></feOffset>
            <feComposite in="shadowOffsetInner1" in2="SourceAlpha" operator="arithmetic" k2="-1" k3="1" result="shadowInnerInner1"></feComposite>
            <feColorMatrix values="0 0 0 0 0.309803922   0 0 0 0 0.419607843   0 0 0 0 0.584313725  0 0 0 1 0" type="matrix" in="shadowInnerInner1"></feColorMatrix>
        </filter>
    </defs>
    <g id="走查" stroke="none" stroke-width="1" fill="none" fill-rule="evenodd">
        <g id="工作环境-室外" transform="translate(-176.000000, -293.000000)" fill-rule="nonzero">
            <g id="环境指数" transform="translate(15.000000, 184.000000)">
                <g id="湿度" transform="translate(128.000000, 60.000000)">
                    <g transform="translate(33.000000, 49.000000)" id="路径">
                        <g>
                            <use fill="#8DA2C0" xlink:href="#path-1"></use>
                            <use fill="black" fill-opacity="1" filter="url(#filter-2)" xlink:href="#path-1"></use>
                        </g>
                        <path d="M7.86889793,11.1446006 C7.09504438,12.8004808 6.57082101,14.3537352 6.57082101,15.5380917 C6.57082101,20.1035503 10.270895,23.8036243 14.8363536,23.8036243 C19.4018121,23.8036243 23.1018861,20.1035503 23.1018861,15.5380917 C23.1018861,15.1830621 23.0491864,14.7919749 22.9493343,14.3759246 C13.8738905,15.3161982 15.0471524,8.97004438 7.86889793,11.1446006 Z" fill="#13C2C2"></path>
                        <g>
                            <use fill="#8DA2C0" xlink:href="#path-3"></use>
                            <use fill="black" fill-opacity="1" filter="url(#filter-4)" xlink:href="#path-3"></use>
                        </g>
                    </g>
                </g>
            </g>
        </g>
    </g>
</svg>