<?xml version="1.0" encoding="UTF-8"?>
<svg width="17px" height="24px" viewBox="0 0 17 24" version="1.1" xmlns="http://www.w3.org/2000/svg" xmlns:xlink="http://www.w3.org/1999/xlink">
    <title>编组</title>
    <defs>
        <path d="M5.5546875,4.35 L0.9046875,4.35 C0.3046875,4.35 0.0046875,4.05 0.0046875,3.45 C0.0046875,3 0.3046875,2.55 0.9046875,2.55 L5.7046875,2.55 C6.1546875,2.55 6.6046875,3 6.6046875,3.45 C6.4546875,4.05 6.1546875,4.35 5.5546875,4.35 L5.5546875,4.35 Z M5.5546875,7.2 L2.5546875,7.2 C2.1046875,7.2 1.6546875,6.75 1.6546875,6.3 C1.6546875,5.85 2.1046875,5.4 2.5546875,5.4 L5.5546875,5.4 C6.0046875,5.4 6.4546875,5.85 6.4546875,6.3 C6.4546875,6.9 6.1546875,7.2 5.5546875,7.2 Z M5.5546875,10.2 L4.6546875,10.2 C4.2046875,10.2 3.7546875,9.75 3.7546875,9.3 C3.7546875,8.85 4.2046875,8.4 4.6546875,8.4 L5.7046875,8.4 C6.1546875,8.4 6.6046875,8.85 6.6046875,9.3 C6.4546875,9.75 6.1546875,10.2 5.5546875,10.2 Z" id="path-1"></path>
        <filter x="-37.9%" y="-32.7%" width="175.8%" height="165.4%" filterUnits="objectBoundingBox" id="filter-2">
            <feGaussianBlur stdDeviation="1.5" in="SourceAlpha" result="shadowBlurInner1"></feGaussianBlur>
            <feOffset dx="0" dy="2" in="shadowBlurInner1" result="shadowOffsetInner1"></feOffset>
            <feComposite in="shadowOffsetInner1" in2="SourceAlpha" operator="arithmetic" k2="-1" k3="1" result="shadowInnerInner1"></feComposite>
            <feColorMatrix values="0 0 0 0 0.309803922   0 0 0 0 0.419607843   0 0 0 0 0.584313725  0 0 0 1 0" type="matrix" in="shadowInnerInner1"></feColorMatrix>
        </filter>
    </defs>
    <g id="走查" stroke="none" stroke-width="1" fill="none" fill-rule="evenodd">
        <g id="工作环境-室外" transform="translate(-74.000000, -294.000000)" fill-rule="nonzero">
            <g id="环境指数" transform="translate(15.000000, 184.000000)">
                <g id="温度" transform="translate(26.000000, 60.000000)">
                    <g id="编组" transform="translate(33.000000, 50.000000)">
                        <path d="M15.9046875,15 C15.4546875,14.25 14.7046875,13.5 13.8046875,13.05 L13.8046875,3 C13.8046875,1.35 12.6046875,0 10.9546875,0 C9.3046875,0 8.1046875,1.35 8.1046875,3 L8.1046875,13.2 C7.2046875,13.5 6.6046875,14.25 6.0046875,15 C5.4046875,15.9 5.1046875,16.95 5.1046875,18.15 C5.1046875,19.65 5.7046875,21.15 6.7546875,22.2 C7.8046875,23.25 9.4546875,24 10.9546875,24 C12.4546875,24 13.9546875,23.4 15.0046875,22.35 C16.0546875,21.3 16.6546875,19.8 16.6546875,18.3 C16.8046875,17.1 16.5046875,16.05 15.9046875,15 Z M10.9546875,22.95 C8.2546875,22.95 6.1546875,20.7 6.1546875,18.15 C6.1546875,16.35 7.2046875,14.7 8.8546875,13.8 L9.1546875,13.65 L9.1546875,3 C9.1546875,1.95 10.0546875,1.05 11.1046875,1.05 C12.1546875,1.05 13.0546875,1.95 13.0546875,3 L13.0546875,13.8 L13.3546875,13.95 C15.0046875,14.85 16.0546875,16.5 16.0546875,18.3 C15.9046875,20.85 13.6546875,22.95 10.9546875,22.95 Z" id="形状" fill="#647DA3"></path>
                        <g id="形状">
                            <use fill="#8DA2C0" xlink:href="#path-1"></use>
                            <use fill="black" fill-opacity="1" filter="url(#filter-2)" xlink:href="#path-1"></use>
                        </g>
                        <path d="M11.8546875,15.6 L11.8546875,6.15 C11.8546875,5.7 11.4046875,5.25 10.9546875,5.25 C10.5046875,5.25 10.0546875,5.7 10.0546875,6.15 L10.0546875,15.6 C9.0046875,15.9 8.4046875,16.95 8.4046875,18 C8.4046875,19.35 9.6046875,20.55 10.9546875,20.55 C12.3046875,20.55 13.5046875,19.35 13.5046875,18 C13.5046875,16.95 12.9046875,15.9 11.8546875,15.6 Z" id="路径" fill="#13C2C2"></path>
                    </g>
                </g>
            </g>
        </g>
    </g>
</svg>