<?xml version="1.0" standalone="no"?><!DOCTYPE svg PUBLIC "-//W3C//DTD SVG 1.1//EN" "http://www.w3.org/Graphics/SVG/1.1/DTD/svg11.dtd"><svg t="1639471574901" class="icon" viewBox="0 0 1024 1024" version="1.1" xmlns="http://www.w3.org/2000/svg" p-id="7927" xmlns:xlink="http://www.w3.org/1999/xlink" width="200" height="200"><defs><style type="text/css"></style></defs><path d="M95.827383 377.856c0 53.028571 40.521143 97.170286 89.088 97.170286 48.603429 0 89.161143-44.361143 89.161143-97.170286 8.118857-61.878857-40.521143-97.206857-89.161143-97.206857S95.827383 324.571429 95.827383 377.856z m847.213714-226.194286c-32.402286-0.219429-56.502857 26.221714-56.502857 52.809143 8.118857 26.514286 32.402286 53.028571 56.685714 53.028572 32.475429 0 56.795429-26.514286 56.795429-53.028572 0-26.477714-24.502857-53.028571-56.978286-53.028571v0.219428z m-247.296 43.776c48.64 0 89.161143-44.434286 89.161143-97.206857 0-52.772571-40.521143-97.206857-89.161143-97.206857s-89.088 44.434286-89.088 97.206857c-8.118857 52.772571 32.402286 96.987429 89.088 96.987429v0.219428z m-371.273143 26.477715c40.521143 0 81.042286-35.328 81.042286-79.542858 0-44.178286-32.438857-79.725714-81.042286-79.725714-40.521143 0-81.005714 35.364571-81.005714 79.506286 0 44.178286 32.365714 79.542857 81.005714 79.542857v0.219429z m401.554286 228.132571c0 44.434286 32.475429 79.542857 81.042286 79.542857 40.521143 0 81.042286-35.401143 81.042285-79.542857 0-44.141714-32.402286-79.542857-81.042285-79.542857-40.301714-0.109714-81.005714 35.108571-81.005715 79.542857z m-201.142857-7.314286c40.521143 0 64.841143-35.291429 64.841143-70.656 0-35.401143-32.365714-70.656-64.804572-70.656-40.521143 0-64.841143 35.328-64.841143 70.656s32.438857 70.582857 64.841143 70.582857v0.109715z m399.872 151.222857c-8.704 0-17.444571 0-21.76 4.754286-174.445714 132.827429-331.483429 37.961143-335.798857 33.28-327.058286-218.477714-545.060571 14.006857-545.060572 14.006857a25.453714 25.453714 0 0 0-8.704 19.017143c1.097143 7.094857 4.096 13.714286 8.704 18.980572 8.777143 14.226286 26.038857 9.508571 39.277715 0 4.388571-9.508571 183.149714-194.413714 470.966857-4.717715 4.388571 4.717714 74.166857 47.433143 174.445714 47.433143 65.426286 0 148.260571-19.017143 231.131429-80.713143 10.203429-11.593143 11.958857-29.001143 4.352-42.642285a21.906286 21.906286 0 0 0-17.554286-9.508572v0.109714zM64.77824 151.076571c36.205714-0.438857 65.206857-32.073143 64.841143-70.656a72.484571 72.484571 0 0 0-18.651429-49.737142A63.634286 63.634286 0 0 0 64.887954 9.581714C28.645669 10.057143-0.355474 41.691429 0.01024 80.274286a72.411429 72.411429 0 0 0 18.651429 49.737143c12.141714 13.275429 28.745143 20.845714 46.116571 21.028571z m61.074286 639.561143H52.307383v227.730286H102.775954v-75.410286h24.502857c44.178286 0 82.761143-23.954286 82.761143-78.153143 0-56.393143-37.997714-74.166857-84.187428-74.166857z m-1.170286 109.312h-21.942857v-66.084571h20.589714c24.210286 0 37.668571 7.936 37.668572 30.939428 0 22.966857-11.812571 35.145143-36.315429 35.145143z m233.216-11.117714c-3.949714 13.165714-7.314286 27.794286-11.556571 41.691429h-1.353143c-3.913143-14.153143-7.314286-28.525714-11.52-41.691429l-33.206857-98.377143H246.062811v227.730286h44.763429v-77.677714a816.493714 816.493714 0 0 0-6.436571-79.104h1.133714l16.859428 54.528 28.452572 83.346285H358.41024l28.16-83.346285 17.444571-54.528h1.133715c-3.437714 26.221714-5.595429 52.626286-6.436572 79.104v78.08h45.860572v-227.730286h-54.637715l-32.073142 98.011428z m195.364571 86.893714c32.182857-35.218286 63.085714-78.445714 63.085715-117.650285 0-43.52-28.16-71.68-68.681143-71.68-29.842286 0-49.005714 11.593143-69.558857 35.181714l27.318857 29.44c9.874286-11.666286 20.845714-22.235429 35.474286-22.235429 16.603429 0 27.318857 11.117714 27.318857 32.219429 0 33.353143-35.181714 74.422857-87.588572 126.281143v31.195428h145.334857v-45.933714H587.347383c-11.410286 0.365714-22.784 1.389714-34.084572 3.181714z m136.594286-20.553143a31.597714 31.597714 0 0 0-30.793143 19.456 35.693714 35.693714 0 0 0 5.705143 37.668572 30.427429 30.427429 0 0 0 34.925714 8.228571 34.011429 34.011429 0 0 0 20.004572-31.670857 33.426286 33.426286 0 0 0-8.265143-23.698286 29.257143 29.257143 0 0 0-21.833143-9.984h0.256z m139.995429-85.174857a48.896 48.896 0 0 0-21.686857 4.608l3.072-38.875428h74.605714v-45.312h-117.650286l-5.229714 112.749714 21.942857 15.616c12.434286-8.557714 18.066286-11.117714 29.549714-11.117714 18.066286 0 30.72 12.288 30.72 35.218285s-12.617143 35.547429-32.914285 35.547429c-16.64 0-31.268571-9.508571-43.081143-21.723429l-23.222857 34.596572a95.817143 95.817143 0 0 0 73.216 31.634286c40.228571 0 75.739429-29.732571 75.739428-80.932572 0-49.334857-29.878857-72.009143-65.353143-72.009143h0.292572z" fill="#000000" p-id="7928"></path></svg>