<?xml version="1.0" encoding="UTF-8"?>
<svg width="24px" height="25px" viewBox="0 0 24 25" version="1.1" xmlns="http://www.w3.org/2000/svg" xmlns:xlink="http://www.w3.org/1999/xlink">
    <title>编组</title>
    <defs>
        <path d="M22.1162799,14.1810404 C21.9081166,14.1810404 21.6990787,14.1810404 21.5958717,14.2947431 C17.4238601,17.4714195 13.6681749,15.2026148 13.5649679,15.0906614 C5.74310204,9.86558856 0.529399434,15.4256469 0.52939941,15.4256469 C0.398056239,15.5404256 0.3222594,15.7060322 0.321236145,15.8804574 C0.347475215,16.0501367 0.419195328,16.2084457 0.52939941,16.3343932 C0.73931195,16.6746265 1.15213993,16.5617985 1.46875803,16.3343932 C1.57371429,16.106988 5.84893295,11.6848306 12.7323149,16.2215652 C12.8372711,16.3343932 14.5060758,17.3559676 16.9043265,17.3559676 C18.4690496,17.3559676 20.4500991,16.9011571 22.4320233,15.4256469 C22.6760467,15.1483874 22.7180292,14.7320608 22.536105,14.4058218 C22.4408445,14.2669521 22.2846365,14.1823395 22.1162799,14.1784165 L22.1162799,14.1810404 L22.1162799,14.1810404 Z M3.0098659,18.8848305 L1.25097376,18.8848305 L1.25097376,24.3311862 L2.45797084,24.3311862 L2.45797084,22.5276877 L3.04397667,22.5276877 C4.10053644,22.5276877 5.02327696,21.9548014 5.02327696,20.6585915 C5.02327696,19.3099034 4.11453061,18.8848305 3.0098659,18.8848305 Z M2.98187755,21.4991162 L2.45709621,21.4991162 L2.45709621,19.9186498 L2.94951603,19.9186498 C3.52852478,19.9186498 3.85039068,20.1084457 3.85039068,20.6585915 C3.85039068,21.2078626 3.5678834,21.4991162 2.98187755,21.4991162 L2.98187755,21.4991162 Z M8.55942857,21.233227 C8.46496794,21.5480958 8.38450145,21.8979501 8.28304374,22.2303116 L8.25068222,22.2303116 C8.15709621,21.8918276 8.0757551,21.5480959 7.97517202,21.233227 L7.18100293,18.8804574 L5.88479299,18.8804574 L5.88479299,24.3268131 L6.95534694,24.3268131 L6.95534694,22.4690871 C6.93473207,21.8363524 6.88335944,21.2049945 6.80141109,20.5772504 L6.82852478,20.5772504 L7.23173177,21.881332 L7.91219825,23.8746265 L8.57167347,23.8746265 L9.24514286,21.881332 L9.66234401,20.5772504 L9.68945773,20.5772504 C9.607242,21.2043641 9.55563848,21.835851 9.53552186,22.4690871 L9.53552186,24.336434 L10.6323149,24.336434 L10.6323149,18.8900784 L9.32560932,18.8900784 L8.55855395,21.2341017 L8.55942857,21.233227 Z M13.2317318,23.3113611 C14.0014111,22.4690871 14.7404781,21.4352679 14.7404781,20.4976585 C14.7404781,19.4568422 14.0670088,18.7833728 13.0979125,18.7833728 C12.3842099,18.7833728 11.9259009,19.0606323 11.4343557,19.6247722 L12.0877085,20.3288539 C12.3238601,20.0498451 12.5862507,19.7970754 12.936105,19.7970754 C13.3331895,19.7970754 13.5894577,20.0629646 13.5894577,20.5676294 C13.5894577,21.365297 12.7480583,22.3475128 11.4947055,23.587746 L11.4947055,24.3338101 L14.9705073,24.3338101 L14.9705073,23.2352679 L14.0468921,23.2352679 C13.7740058,23.2440142 13.5019942,23.268504 13.2317318,23.3113611 L13.2317318,23.3113611 Z M16.4984956,22.819816 C16.1793196,22.8035885 15.884445,22.9898989 15.7620525,23.2851221 C15.6300718,23.5866085 15.683158,23.9371138 15.8984956,24.1859967 C16.1045044,24.4262505 16.4421764,24.5058067 16.7337726,24.3827897 C17.0304443,24.2487915 17.2186543,23.9508211 17.2121983,23.6253553 C17.2224289,23.4179303 17.1515371,23.2146652 17.0145306,23.0585915 C16.8826523,22.9079649 16.69257,22.8210428 16.4923732,22.819816 L16.4984956,22.819816 L16.4984956,22.819816 Z M19.8466006,20.7827897 C19.6675567,20.7793267 19.4901092,20.8170306 19.3279417,20.8929938 L19.4014111,19.9632562 L21.1856676,19.9632562 L21.1856676,18.8795827 L18.371965,18.8795827 L18.2468921,21.5760842 L18.7716735,21.9495536 C19.0690496,21.7448889 19.2037434,21.6836644 19.478379,21.6836644 C19.910449,21.6836644 20.2130729,21.9775419 20.2130729,22.5259384 C20.2130729,23.0743349 19.9113236,23.3760842 19.4259009,23.3760842 C19.0279417,23.3760842 18.6780875,23.1486789 18.3955802,22.8565506 L17.8401866,23.6839559 C18.2861776,24.1786261 18.9253218,24.4547798 19.591207,24.4405157 C20.5533061,24.4405157 21.4025773,23.729437 21.4025773,22.5049472 C21.4025773,21.3250638 20.688,20.7827897 19.8396035,20.7827897 L19.8466006,20.7827897 L19.8466006,20.7827897 Z" id="path-1"></path>
        <filter x="-11.2%" y="-21.6%" width="122.4%" height="143.1%" filterUnits="objectBoundingBox" id="filter-2">
            <feGaussianBlur stdDeviation="1.5" in="SourceAlpha" result="shadowBlurInner1"></feGaussianBlur>
            <feOffset dx="0" dy="2" in="shadowBlurInner1" result="shadowOffsetInner1"></feOffset>
            <feComposite in="shadowOffsetInner1" in2="SourceAlpha" operator="arithmetic" k2="-1" k3="1" result="shadowInnerInner1"></feComposite>
            <feColorMatrix values="0 0 0 0 0.309803922   0 0 0 0 0.419607843   0 0 0 0 0.584313725  0 0 0 1 0" type="matrix" in="shadowInnerInner1"></feColorMatrix>
        </filter>
    </defs>
    <g id="走查" stroke="none" stroke-width="1" fill="none" fill-rule="evenodd">
        <g id="工作环境-室外" transform="translate(-278.000000, -293.000000)" fill-rule="nonzero">
            <g id="环境指数" transform="translate(15.000000, 184.000000)">
                <g id="PM2.5" transform="translate(230.000000, 60.000000)">
                    <g id="编组" transform="translate(33.000000, 49.000000)">
                        <g id="形状">
                            <use fill="#8DA2C0" xlink:href="#path-1"></use>
                            <use fill="black" fill-opacity="1" filter="url(#filter-2)" xlink:href="#path-1"></use>
                        </g>
                        <path d="M19.3017026,8.83701102 C20.4649679,8.83701102 21.239895,9.68366437 21.239895,10.7393495 C21.239895,11.7950346 20.2707988,12.6416818 19.3017026,12.6416818 C18.1401866,12.6416818 17.3635102,11.8020317 17.3635102,10.7393495 L17.3635102,10.7393495 C17.3643849,9.67666727 18.3378542,8.83439323 19.3017026,8.83701102 Z M4.42240234,6.68803754 C5.58566764,6.68803754 6.74893295,7.5329355 6.55476386,9.01281888 C6.55476386,10.2757926 5.58479302,11.3367256 4.42240234,11.3367256 C3.2608863,11.3367256 2.29179009,10.2810404 2.29179009,9.01281888 C2.29179009,7.73847486 3.25913703,6.68803754 4.42240234,6.68803754 Z M12.5538892,7.18483053 C13.329691,7.18483053 14.1037434,8.02797922 14.1037434,8.87462645 C14.1037434,9.72039904 13.5221108,10.5644224 12.5530146,10.5644224 L12.5530146,10.5644224 C11.7789621,10.5626731 11.0031603,9.71952441 11.0031603,8.87462645 C11.0031603,8.02972849 11.584793,7.18483053 12.5538892,7.18483053 Z M22.5535977,3.59795008 C23.3302741,3.59795008 23.9162799,4.2329355 23.9162799,4.86617164 C23.9162799,5.50028244 23.3346472,6.13439323 22.5579708,6.13439323 C21.9772128,6.13439323 21.3964548,5.50028244 21.2022857,4.86617164 C21.2022857,4.23031158 21.7786705,3.59795008 22.5535977,3.60319788 L22.5535977,3.60319788 Z M7.76001165,1.47433491 C8.92240234,1.47433491 9.69820408,2.32448067 9.69820408,3.38104044 C9.69820408,4.43847486 8.72910787,5.28337282 7.76001165,5.28337282 L7.76001165,5.28337282 C6.59674635,5.278125 5.82269388,4.43235242 5.82269388,3.37579264 C5.82269388,2.32010749 6.79091544,1.47433491 7.76001165,1.47433491 Z M16.6393119,0.000573979592 C17.8025773,0.000573979592 18.7716735,1.0632562 18.7716735,2.32535532 C18.7716735,3.58745443 17.8025773,4.65013665 16.6393119,4.65013665 L16.6393119,4.65013665 C15.2836268,4.64488886 14.3145306,3.58745443 14.5086997,2.32535532 C14.5086997,1.0632562 15.4760466,0.000573979592 16.6393119,0.000573979592 Z M1.55184839,0.205238696 C1.97322816,0.21360446 2.37227038,0.39634047 2.65388921,0.709903436 C2.9477399,1.03567504 3.10714171,1.46074654 3.09995336,1.89940779 C3.10869971,2.82214831 2.4151137,3.57870808 1.54922449,3.58920371 L1.54922449,3.58920371 C1.13377261,3.58395591 0.73668805,3.40290636 0.446309048,3.08541364 C0.152306568,2.75973435 -0.00711852556,2.33460077 0.000244897959,1.89590926 C-0.00850145089,0.973168742 0.685084558,0.216608968 1.55184839,0.205238696 Z" id="形状结合" fill="#13C2C2"></path>
                    </g>
                </g>
            </g>
        </g>
    </g>
</svg>