<?xml version="1.0" standalone="no"?><!DOCTYPE svg PUBLIC "-//W3C//DTD SVG 1.1//EN" "http://www.w3.org/Graphics/SVG/1.1/DTD/svg11.dtd"><svg t="1639470049285" class="icon" viewBox="0 0 1024 1024" version="1.1" xmlns="http://www.w3.org/2000/svg" p-id="5513" data-spm-anchor-id="a313x.7781069.0.i15" xmlns:xlink="http://www.w3.org/1999/xlink" width="200" height="200"><defs><style type="text/css"></style></defs><path d="M655.319942 631.576349a23.886657 23.886657 0 0 1-23.886657-23.886657V416.596436a23.886657 23.886657 0 1 1 47.773314 0v191.093256a23.886657 23.886657 0 0 1-23.886657 23.886657z m71.659971-47.773314a23.886657 23.886657 0 0 1-23.886657-23.886657v-95.546628a23.886657 23.886657 0 1 1 47.773314 0v95.546628a23.886657 23.886657 0 0 1-23.886657 23.886657z m-358.299855 71.659971a23.886657 23.886657 0 0 1-23.886657-23.886657V392.709779a23.886657 23.886657 0 1 1 47.773314 0v238.86657a23.886657 23.886657 0 0 1-23.886657 23.886657z m71.659971 95.546628a23.886657 23.886657 0 0 1-23.886657-23.886657V297.163151a23.886657 23.886657 0 1 1 47.773314 0v429.959826a23.886657 23.886657 0 0 1-23.886657 23.886657z m71.659971-95.546628a23.886657 23.886657 0 0 1-23.886657-23.886657V392.709779a23.886657 23.886657 0 0 1 47.773314 0v238.86657a23.886657 23.886657 0 0 1-23.886657 23.886657z m71.659971-71.659971a23.886657 23.886657 0 0 1-23.886657-23.886657v-95.546628a23.886657 23.886657 0 1 1 47.773314 0v95.546628a23.886657 23.886657 0 0 1-23.886657 23.886657z m-286.639884 0a23.886657 23.886657 0 0 1-23.886657-23.886657v-95.546628a23.886657 23.886657 0 1 1 47.773314 0v95.546628a23.886657 23.886657 0 0 1-23.886657 23.886657z m0 0" p-id="5514" data-spm-anchor-id="a313x.7781069.0.i11" class="selected" fill="#1ABFC2"></path><path d="M985.638285 1024a40.607317 40.607317 0 0 1-26.616561-11.260853l-153.557081-153.55708a499.57237 499.57237 0 0 1-317.692538 117.385857A488.311517 488.311517 0 0 1 142.78053 143.435451a485.752232 485.752232 0 0 1 680.940344-8.189711 35.318129 35.318129 0 0 1 11.260853 27.128418 36.853699 36.853699 0 0 1-38.389271 38.38927 35.318129 35.318129 0 0 1-26.61656-11.260853 415.457213 415.457213 0 0 0-282.886267-112.096669 412.215452 412.215452 0 0 0-291.075977 703.462049 409.485549 409.485549 0 0 0 291.075977 120.968856 423.817543 423.817543 0 0 0 294.147119-120.968856 416.139689 416.139689 0 0 0 91.281154-443.609344 20.815515 20.815515 0 0 1-4.094856-13.820137 37.365556 37.365556 0 0 1 73.195542-11.77271 481.14552 481.14552 0 0 1-83.091442 494.795038l153.55708 153.557081a37.194937 37.194937 0 0 1 0 53.744978 47.432076 47.432076 0 0 1-26.61656 9.725282z m0 0" p-id="5515" data-spm-anchor-id="a313x.7781069.0.i12" class="" fill="#8DA2C0"></path></svg>