<?xml version="1.0" standalone="no"?><!DOCTYPE svg PUBLIC "-//W3C//DTD SVG 1.1//EN" "http://www.w3.org/Graphics/SVG/1.1/DTD/svg11.dtd"><svg t="1640222261479" class="icon" viewBox="0 0 1024 1024" version="1.1" xmlns="http://www.w3.org/2000/svg" p-id="5683" xmlns:xlink="http://www.w3.org/1999/xlink" width="200" height="200"><defs><style type="text/css"></style></defs><path d="M377.088 10.6496A27.5456 27.5456 0 0 0 369.664 34.816a149.4016 149.4016 0 0 0 44.5952 78.08L389.12 327.0144a290.1504 290.1504 0 0 0-72.192 52.3264 277.1968 277.1968 0 0 0-54.528 76.8 283.6992 283.6992 0 0 0-26.3168 93.2352 25.6 25.6 0 0 0 6.8096 21.0944 26.6752 26.6752 0 0 0 20.1216 8.96l229.5808 0.3072v248.5248a25.1904 25.1904 0 0 0 7.1168 18.2784 24.4736 24.4736 0 0 0 18.2784 7.1168 24.9856 24.9856 0 0 0 18.2784-7.1168 24.32 24.32 0 0 0 7.168-18.2784v-248.4736l229.5808 0.3072a26.7264 26.7264 0 0 0 19.5072-8.3456 26.0096 26.0096 0 0 0 7.424-21.6576 281.6 281.6 0 0 0-49.2544-132.3008 288.0512 288.0512 0 0 0-104.3968-90.7776l-25.088-214.1184 3.3792-3.3792a147.3024 147.3024 0 0 0 40.96-75.6224 24.8832 24.8832 0 0 0-5.12-21.3504 27.1872 27.1872 0 0 0-20.48-9.9328H395.6736a26.624 26.624 0 0 0-18.5856 8.0384z" p-id="5684" fill="#13C2C2"></path><path d="M594.4832 824.9344a76.8 76.8 0 0 1-152.832 0c-60.3648 12.3392-102.0928 38.8608-102.0928 69.632 0 42.5472 79.9744 76.8 178.688 76.8s178.688-34.5088 178.688-76.8c0-30.72-41.8816-57.2928-102.4512-69.632z" p-id="5685" fill="#13C2C2"></path></svg>