<?xml version="1.0" encoding="UTF-8"?>
<svg width="60px" height="60px" viewBox="0 0 60 60" version="1.1" xmlns="http://www.w3.org/2000/svg" xmlns:xlink="http://www.w3.org/1999/xlink">
    <title>编组 3备份</title>
    <defs>
        <linearGradient x1="50%" y1="0%" x2="50%" y2="100%" id="linearGradient-1">
            <stop stop-color="#FFFFFF" offset="0%"></stop>
            <stop stop-color="#FFFFFF" stop-opacity="0" offset="98.2708698%"></stop>
        </linearGradient>
        <linearGradient x1="50%" y1="0%" x2="50%" y2="100%" id="linearGradient-2">
            <stop stop-color="#FFFFFF" stop-opacity="0.3" offset="0%"></stop>
            <stop stop-color="#FFFFFF" stop-opacity="0" offset="100%"></stop>
        </linearGradient>
        <circle id="path-3" cx="30" cy="30" r="21"></circle>
        <filter x="-16.7%" y="-11.9%" width="133.3%" height="133.3%" filterUnits="objectBoundingBox" id="filter-4">
            <feOffset dx="0" dy="2" in="SourceAlpha" result="shadowOffsetOuter1"></feOffset>
            <feGaussianBlur stdDeviation="2" in="shadowOffsetOuter1" result="shadowBlurOuter1"></feGaussianBlur>
            <feComposite in="shadowBlurOuter1" in2="SourceAlpha" operator="out" result="shadowBlurOuter1"></feComposite>
            <feColorMatrix values="0 0 0 0 0   0 0 0 0 0   0 0 0 0 0  0 0 0 0.1 0" type="matrix" in="shadowBlurOuter1"></feColorMatrix>
        </filter>
    </defs>
    <g id="10-18" stroke="none" stroke-width="1" fill="none" fill-rule="evenodd">
        <g id="共享--已预约--开始前15分钟" transform="translate(-40.000000, -250.000000)">
            <g id="工位编号" transform="translate(16.000000, 238.000000)">
                <g id="编组-3备份" transform="translate(24.000000, 12.000000)">
                    <circle id="椭圆形" stroke="url(#linearGradient-2)" fill-opacity="0.3" fill="url(#linearGradient-1)" cx="30" cy="30" r="29.5"></circle>
                    <g id="椭圆形">
                        <use fill="black" fill-opacity="1" filter="url(#filter-4)" xlink:href="#path-3"></use>
                        <use fill="#FFFFFF" fill-rule="evenodd" xlink:href="#path-3"></use>
                    </g>
                    <g id="编组" transform="translate(20.000000, 18.000000)" fill-rule="nonzero">
                        <polygon id="路径" fill="#FFD9B0" points="4.37554549 0.461410898 15.451426 0.461410898 15.451426 11.53931 4.37554549 11.53931"></polygon>
                        <path d="M15.1053678,12.000721 L4.7216037,12.000721 C4.50744957,12.000721 4.30206664,11.9156486 4.15063681,11.7642187 C3.99920698,11.6127889 3.91413459,11.407406 3.91413459,11.1932519 L3.91413459,0.807469078 C3.91413459,0.59331496 3.99920699,0.387932036 4.15063682,0.236502209 C4.30206665,0.0850723818 4.50744958,0 4.7216037,0 L15.1053678,0 C15.3195219,0 15.5249048,0.0850723818 15.6763347,0.236502209 C15.8277645,0.387932036 15.9128369,0.59331496 15.9128369,0.807469078 L15.9128369,11.1932519 C15.9128369,11.407406 15.8277645,11.6127889 15.6763347,11.7642187 C15.5249048,11.9156486 15.3195219,12.000721 15.1053678,12.000721 L15.1053678,12.000721 Z M4.83695641,11.0778991 L14.9900151,11.0778991 L14.9900151,0.92282182 L4.83695641,0.92282182 L4.83695641,11.0778991 Z" id="形状" fill="#FFAE45"></path>
                        <path d="M17.995242,17.5304423 L1.8317295,17.5304423 C1.40377088,17.5304423 1.05540565,17.201687 1.05540565,16.7973757 L1.05540565,11.53931 C1.05540565,11.2844798 1.26198634,11.0778991 1.51681655,11.0778991 C1.77164675,11.0778991 1.97822745,11.2844798 1.97822745,11.53931 L1.97822745,16.6076205 L17.8484556,16.6076205 L17.8484556,11.53931 C17.8484556,11.2844798 18.0550363,11.0778991 18.3098665,11.0778991 C18.5646968,11.0778991 18.7712775,11.2844798 18.7712775,11.53931 L18.7712775,16.7973757 C18.7712775,17.201687 18.4232006,17.5304423 17.995242,17.5304423 L17.995242,17.5304423 Z" id="路径" fill="#FFAE45"></path>
                        <path d="M9.91334154,17.0834505 C9.79096776,17.0834505 9.67360609,17.0348377 9.58707476,16.9483064 C9.50054343,16.861775 9.45193064,16.7444134 9.45193064,16.6220396 L9.45193064,11.53931 C9.45193064,11.2844798 9.65851134,11.0778991 9.91334155,11.0778991 C10.1681718,11.0778991 10.3747525,11.2844798 10.3747525,11.53931 L10.3747525,16.6220396 C10.3747525,16.7444134 10.3261397,16.861775 10.2396083,16.9483064 C10.153077,17.0348377 10.0357153,17.0834505 9.91334154,17.0834505 Z" id="路径" fill="#FFAE45"></path>
                        <path d="M9.91334154,24 C9.65851134,24 9.45193064,23.7934193 9.45193064,23.5385891 L9.45193064,16.6220396 C9.45193064,16.3672094 9.65851134,16.1606287 9.91334155,16.1606287 C10.1681718,16.1606287 10.3747525,16.3672094 10.3747525,16.6220396 L10.3747525,23.5385891 C10.3747525,23.6609629 10.3261397,23.7783246 10.2396083,23.8648559 C10.153077,23.9513872 10.0357153,24 9.91334154,24 Z" id="路径" fill="#FFAE45"></path>
                        <path d="M14.5311996,24 L5.29577189,24 C5.04094168,24 4.83436098,23.7934193 4.83436098,23.5385891 C4.83436098,23.2837589 5.04094168,23.0771782 5.29577189,23.0771782 L14.5311996,23.0771782 C14.7860298,23.0771782 14.9926105,23.2837589 14.9926105,23.5385891 C14.9926105,23.7934193 14.7860298,24 14.5311996,24 Z M18.3098666,15.6879709 L1.51681655,15.6879709 C1.26198634,15.6879709 1.05540564,15.4813902 1.05540564,15.22656 C1.05540564,14.9717298 1.26198634,14.7651491 1.51681655,14.7651491 L18.3098666,14.7651491 C18.5646968,14.7651491 18.7712775,14.9717298 18.7712775,15.22656 C18.7712775,15.4813902 18.5646968,15.6879709 18.3098666,15.6879709 Z M2.56710312,12.000721 L0.467971875,12.000721 C0.213141666,12.000721 0.00656096484,11.7941403 0.00656096484,11.5393101 C0.00656096484,11.2844798 0.213141666,11.0778991 0.467971875,11.0778991 L2.56710312,11.0778991 C2.82193333,11.0778991 3.02851403,11.2844798 3.02851403,11.5393101 C3.02851403,11.7941403 2.82193333,12.000721 2.56710312,12.000721 Z M19.3601531,12.000721 L17.2610219,12.000721 C17.0061917,12.000721 16.799611,11.7941403 16.799611,11.5393101 C16.799611,11.2844798 17.0061917,11.0778991 17.2610219,11.0778991 L19.3601531,11.0778991 C19.6149833,11.0778991 19.821564,11.2844798 19.821564,11.5393101 C19.821564,11.7941403 19.6149833,12.000721 19.3601531,12.000721 L19.3601531,12.000721 Z" id="形状" fill="#FFAE45"></path>
                    </g>
                </g>
            </g>
        </g>
    </g>
</svg>