<?xml version="1.0" standalone="no"?><!DOCTYPE svg PUBLIC "-//W3C//DTD SVG 1.1//EN" "http://www.w3.org/Graphics/SVG/1.1/DTD/svg11.dtd"><svg class="icon" width="200px" height="200.00px" viewBox="0 0 1024 1024" version="1.1" xmlns="http://www.w3.org/2000/svg"><path fill="#13C2C2" d="M865.16 363.28H158.84c-27.61 0-50-22.39-50-50s22.39-50 50-50h706.32c27.61 0 50 22.39 50 50s-22.39 50-50 50zM865.16 563.22H158.84c-27.61 0-50-22.39-50-50s22.39-50 50-50h706.32c27.61 0 50 22.39 50 50s-22.39 50-50 50zM865.16 763.17H158.84c-27.61 0-50-22.39-50-50s22.39-50 50-50h706.32c27.61 0 50 22.39 50 50s-22.39 50-50 50z"  /></svg>